<svg width="609" height="205" viewBox="0 0 609 205" fill="none" xmlns="http://www.w3.org/2000/svg">
<path d="M313.523 150H293.357L244.412 70.2246H243.797C243.979 72.9134 244.139 75.7617 244.275 78.7695C244.458 81.7773 244.594 84.8763 244.686 88.0664C244.822 91.2565 244.936 94.4922 245.027 97.7734V150H230.125V50.0586H250.154L299.031 129.287H299.51C299.419 126.963 299.305 124.297 299.168 121.289C299.031 118.281 298.895 115.182 298.758 111.992C298.667 108.757 298.598 105.635 298.553 102.627V50.0586H313.523V150ZM400.925 111.992C400.925 118.281 400.105 123.864 398.464 128.74C396.823 133.617 394.431 137.741 391.286 141.113C388.142 144.44 384.359 146.992 379.939 148.77C375.518 150.501 370.528 151.367 364.968 151.367C359.773 151.367 355.01 150.501 350.681 148.77C346.351 146.992 342.592 144.44 339.402 141.113C336.257 137.741 333.819 133.617 332.087 128.74C330.355 123.864 329.489 118.281 329.489 111.992C329.489 103.652 330.925 96.5885 333.796 90.8008C336.713 84.9674 340.86 80.5241 346.238 77.4707C351.615 74.4173 358.018 72.8906 365.446 72.8906C372.419 72.8906 378.571 74.4173 383.904 77.4707C389.236 80.5241 393.405 84.9674 396.413 90.8008C399.421 96.6341 400.925 103.698 400.925 111.992ZM346.032 111.992C346.032 117.507 346.693 122.223 348.015 126.143C349.382 130.062 351.478 133.07 354.304 135.166C357.129 137.217 360.775 138.242 365.241 138.242C369.708 138.242 373.353 137.217 376.179 135.166C379.004 133.07 381.078 130.062 382.4 126.143C383.721 122.223 384.382 117.507 384.382 111.992C384.382 106.478 383.721 101.807 382.4 97.9785C381.078 94.1048 379.004 91.1654 376.179 89.1602C373.353 87.1094 369.685 86.084 365.173 86.084C358.519 86.084 353.666 88.3171 350.613 92.7832C347.559 97.2493 346.032 103.652 346.032 111.992ZM443.346 138.379C445.442 138.379 447.516 138.197 449.567 137.832C451.618 137.422 453.486 136.943 455.172 136.396V148.564C453.395 149.339 451.093 150 448.268 150.547C445.442 151.094 442.503 151.367 439.45 151.367C435.166 151.367 431.315 150.661 427.897 149.248C424.479 147.79 421.767 145.306 419.762 141.797C417.757 138.288 416.754 133.434 416.754 127.236V86.5625H406.432V79.3848L417.506 73.7109L422.77 57.5098H432.887V74.3262H454.557V86.5625H432.887V127.031C432.887 130.859 433.844 133.708 435.758 135.576C437.672 137.445 440.202 138.379 443.346 138.379ZM496.5 72.8906C503.244 72.8906 509.032 74.2806 513.863 77.0605C518.694 79.8405 522.408 83.7826 525.005 88.8867C527.603 93.9909 528.902 100.098 528.902 107.207V115.82H478.384C478.567 123.158 480.526 128.809 484.263 132.773C488.046 136.738 493.332 138.721 500.123 138.721C504.953 138.721 509.283 138.265 513.111 137.354C516.985 136.396 520.972 135.007 525.074 133.184V146.24C521.291 148.018 517.44 149.316 513.521 150.137C509.602 150.957 504.908 151.367 499.439 151.367C492.011 151.367 485.471 149.932 479.82 147.061C474.214 144.144 469.817 139.814 466.627 134.072C463.482 128.33 461.91 121.198 461.91 112.676C461.91 104.199 463.345 96.9987 466.216 91.0742C469.087 85.1497 473.121 80.638 478.316 77.5391C483.511 74.4401 489.573 72.8906 496.5 72.8906ZM496.5 84.9902C491.441 84.9902 487.339 86.6309 484.195 89.9121C481.096 93.1934 479.273 98.0013 478.726 104.336H513.179C513.134 100.553 512.496 97.2038 511.265 94.2871C510.08 91.3704 508.257 89.0918 505.796 87.4512C503.381 85.8105 500.282 84.9902 496.5 84.9902ZM559.565 111.309L534.272 74.3262H552.593L569.888 100.918L587.251 74.3262H605.503L580.073 111.309L606.802 150H588.413L569.888 121.631L551.294 150H533.042L559.565 111.309Z" fill="white"/>
<path d="M34.7222 5.50336C25.5133 5.50336 16.6816 9.15236 10.1699 15.6477C3.65822 22.143 0 30.9525 0 40.1382V170.365C0 179.551 3.65822 188.361 10.1699 194.856C16.6816 201.351 25.5133 205 34.7222 205H110.717C115.277 205.001 119.792 204.106 124.006 202.366C128.219 200.626 132.048 198.075 135.272 194.859L189.828 140.43C193.053 137.213 195.611 133.394 197.357 129.192C199.102 124.989 200 120.485 200 115.936V40.1382C200 30.9525 196.342 22.143 189.83 15.6477C183.319 9.15236 174.487 5.50336 165.278 5.50336H34.7222ZM13.8889 40.1382C13.8889 34.6268 16.0838 29.3411 19.9908 25.4439C23.8979 21.5467 29.1969 19.3573 34.7222 19.3573H165.278C170.803 19.3573 176.102 21.5467 180.009 25.4439C183.916 29.3411 186.111 34.6268 186.111 40.1382V116.335H145.833C136.624 116.335 127.792 119.984 121.281 126.479C114.77 132.974 111.111 141.784 111.111 150.969V191.146H34.7222C29.1969 191.146 23.8979 188.956 19.9908 185.059C16.0838 181.162 13.8889 175.877 13.8889 170.365V40.1382ZM125 185.493V150.969C125 145.458 127.195 140.173 131.102 136.275C135.009 132.378 140.308 130.189 145.833 130.189H180.444C180.302 130.339 180.158 130.487 180.011 130.632L125.45 185.061C125.302 185.208 125.152 185.352 125 185.493Z" fill="#D99BFF"/>
<path d="M118.319 28.4548L138.719 61.7198H139.385L159.786 28.4548H174.692L148.129 70.9809L174.858 113.507H159.87L139.385 80.6985H138.719L118.236 113.507H103.248L130.434 70.9809L103.414 28.4548H118.319Z" fill="#D99BFF"/>
<path d="M99.1083 91.5559V176.107H87.3538L44.2675 114.098H43.4811V176.107H30.6919V91.5559H42.5292L85.6566 153.648H86.4428V91.5559H99.1083Z" fill="#D99BFF"/>
<path d="M86.4399 17.198V92.1812H99.1061V17.198H86.4399Z" fill="#D99BFF"/>
<path d="M30.6897 176.107V200.873H43.4482V176.107H30.6897Z" fill="#D99BFF"/>
</svg>
